<!--?xml version="1.0" encoding="utf-8"?-->
<!-- Generator: Adobe Illustrator 19.1.1, SVG Export Plug-In . SVG Version: 6.00 Build 0)  -->
<svg version="1.1" id="_x31_0" xmlns="http://www.w3.org/2000/svg" xmlns:xlink="http://www.w3.org/1999/xlink" x="0px" y="0px" viewBox="0 0 512 512" style="width: 256px; height: 256px; opacity: 1;" xml:space="preserve">
<style type="text/css">
	.st0{fill:#374149;}
</style>
<g>
	<path class="st0" d="M330.187,13.564l-0.426-0.504v0.004l-0.106-0.121L183.023,142.17c-8.106,0-16.004,0.305-23.805,1.004
		c-8.902,0.598-17.707,1.699-26.207,3.102c-29.906,5-57.015,14.402-78.922,27.606C13.785,198.088-6.918,245.494,2.082,292.51
		c0.797,59.508,27.203,115.125,69.914,147.629c6.902,20.809,22.106,37.91,42.012,46.614c20.902,9,50.71,12.305,69.914,12.305
		c19.207,0,49.012-3.305,69.817-12.305c19.906-8.703,35.207-25.805,42.011-46.614c42.707-32.504,69.118-88.121,69.918-147.629
		c0.758-3.875,1.222-7.801,1.566-11.699c0.145-1.199,0.301-2.371,0.434-3.582l-0.121,0.102c0.003-0.074,0.015-0.149,0.019-0.227
		l-29.406,24.504l-15.805,13.207l-3.102,2.5l-30.207,25.207c-4.503,3.902-10.202,6.301-16.105,6.898
		c-1.5,0.199-2.598,0.199-3.098,0.199c-8.805,0-17.004-3.801-22.504-10.305c-6.809-7.851-8.813-18.442-6.028-27.859
		c0.422-1.321,0.934-2.622,1.559-3.89l-0.106,0.023c0.027-0.058,0.043-0.122,0.07-0.18c-2.102,0.504-4.199,1.004-6.402,1.504
		c-11.602-11.203-22.906-13.406-29.606-14.809c-1.851-0.367-3.078-0.574-4.125-0.922c-0.082-0.039-0.176-0.058-0.254-0.106
		c2.286-3.09,3.981-6.082,5.282-8.973c0.195-0.402,0.297-0.699,0.5-1.098c5.199,4.703,9.398,5.504,14.699,6.602
		c6.305,1.195,14.106,2.797,22.906,11.5c0.199,0.203,0.398,0.402,0.504,0.602c0.031-0.043,0.066-0.078,0.098-0.121l0.042,0.046
		l0.18-0.32c0.195-0.226,0.386-0.446,0.578-0.703l6-6.906h1.301l2.602-2.297c-0.199-0.301-0.504-0.606-0.801-0.902
		c-2.672-2.672-5.317-4.742-7.902-6.527c-0.746-0.562-1.493-1.168-2.242-1.695c3.766-0.406,8.004-1.199,12.543-2.782
		c0.801-0.199,1.602-0.496,2.5-0.801c1.203,0.902,2.402,2.004,3.606,3.203c0.496,0.5,0.996,1.004,1.394,1.398l13.507-11.801
		l13.5-11.902l3-2.699l1.402-1.202c-0.699-0.899-1.5-1.798-2.398-2.7c2.481-2.992,4.692-6.152,6.73-9.37
		c0.367-0.535,0.734-1.039,1.102-1.582c1.184,1.695,2.094,3.406,2.782,5.164c0.074,0.254,0.226,0.52,0.282,0.77l0.038-0.031
		c0.016,0.05,0.047,0.098,0.066,0.152l5.902-5.202l37.91-33.41c-9.004-14.301-21.406-26.602-36.41-35.606
		c-3.102-1.902-6.301-3.699-9.602-5.301c-1.602-2.102-3.301-4-5.199-5.805c-9.606-9.102-22.308-14-36.507-14
		c-1.805,0-3.805,0.102-5.602,0.297h-0.801c-1.402,0.199-2.801,0.398-4.305,0.602c-5-1.199-10.102-2.199-15.301-3.102
		c-5.078-0.843-10.242-1.57-15.481-2.16c-1.546-0.211-3.019-0.434-4.613-0.629L346.187,35.557l1.454-1.207l0,0l0.121-0.106
		L330.187,13.564z M122.511,455.142c-10.804-4.695-19.21-14.098-23.007-25.805l-3.305-10.203l-8.598-6.5
		c-19.004-14.402-34.11-35.105-43.809-58.914c-5.106-12.602,11.203-22.606,20.102-12.301c11.602,13.203,24.508,26.004,38.508,38.207
		c5.5,14.004,12.805,28.805,21.703,43.707c7.21,11.968,14.836,22.922,22.574,32.73c1.653,2.144,3.301,4.293,4.969,6.355
		C141.004,461.018,130.367,458.53,122.511,455.142z M128.274,243.498l0.269-0.304c0.188-0.141,0.399-0.286,0.566-0.398
		c1.402-1,2.801-2.199,4.2-3.398c0.304-0.199,0.503-0.5,0.801-0.703c0.199-0.098,0.304-0.301,0.503-0.5l0.297-0.297
		c0.703-0.602,1.301-1.203,1.899-1.899c0.906-0.8,1.702-1.706,2.503-2.503c0.301-0.301,0.5-0.598,0.801-0.902
		c-0.098-0.098-0.203-0.199-0.402-0.297c2.402-3.703,3.199-7.102,4.199-11.203c0-0.098,0.106-0.098,0.106-0.203
		c0.098-0.496,0.199-1,0.398-1.602c0.5-2.195,1.203-4.496,2.199-6.996v-0.106c0.398-0.898,0.801-1.898,1.297-2.797
		c0.207-0.496,0.402-0.801,0.602-1.203c0.102,0,0.102-0.098,0.102-0.098c1.203-0.199,2.398-0.301,3.602-0.398
		c0.102,0,0.102-0.102,0.199-0.102c0.898,0,1.699-0.098,2.606-0.203c3.078-0.301,6.286-0.485,9.465-0.672
		c1.078,0.004,2.176,0.035,3.29,0.102c-0.219,0.164-0.41,0.328-0.653,0.57c-0.305,0.305-0.504,0.504-0.801,0.801
		c-2.301,2.102-4.199,4.305-5.906,6.402c-0.195,0.301-0.496,0.602-0.699,0.902c-1.398,1.801-2.5,3.5-3.5,5.199
		c-0.199,0.402-0.402,0.703-0.598,1.102c-1.102,1.898-2,3.805-2.703,5.602c-0.301,0.5-0.5,0.898-0.598,1.398
		c-1.102,2.606-1.801,5.106-2.301,7.402c-0.301,1-0.504,1.902-0.703,2.801c-0.098,0.5-0.199,0.898-0.297,1.301
		c-0.301,1.297-0.602,2.202-0.898,3.102c-0.504,1.5-1.106,2.5-2.203,3.699c-0.102,0.202-0.297,0.402-0.504,0.602
		c-0.297,0.297-0.695,0.699-1.098,1.101c-0.5,0.399-1,0.801-1.402,1.199c-1.297,1.004-2.297,1.598-3.695,1.997
		c-1.305,0.402-2.805,0.602-4.906,1.003c-3.102,0.399-6.899,1-11,2.301c-2.399,0.703-5.004,1.699-7.801,3.102
		c-2.203,1-4.402,2.298-6.703,3.798c-2.098,1.402-4.102,3.003-6.301,5.003c-0.398,0.301-0.801,0.703-1.199,1v0.098
		c-0.402,0.305-0.801,0.703-1.203,1.102c-0.398,0.402-0.699,0.699-1,1.102c-7.141,7.047-10.699,13.883-12.93,19.875
		c-0.118,0.293-0.278,0.645-0.387,0.922c-2.39-1.297-4.594-2.894-6.687-4.496c-0.699-0.394-1.301-0.898-1.898-1.394
		c0.301-1.106,0.5-2.203,0.797-3.406c1.703-6.398,3.602-14.402,12.305-23c0.398-0.402,0.801-0.804,1.301-1.203
		c0.398-0.402,0.801-0.801,1.297-1.202c2.5-2.196,4.902-3.895,7.309-5.196c2.398-1.402,4.695-2.304,6.898-3.003
		c2.703-1,5.301-1.5,7.703-1.899c0.699-0.098,1.398-0.199,1.996-0.304c3.902-0.699,7.406-1.196,11.004-2.996
		c0.098,0,0.098,0,0.098,0.094c0.105,0,0.206,0.106,0.206,0.206c0.031-0.019,0.055-0.042,0.086-0.062L128.274,243.498z
		 M187.922,287.603c-0.5,0.602-1.098,1.203-1.699,1.902c-0.699,0.703-1.398,1.402-2.199,2.098c-0.602,0.602-1.301,1.106-1.898,1.703
		c-0.504,0.398-1.004,0.797-1.5,1.199c-3.406,2.699-6.707,4.406-9.809,5.703c-2.598,0.996-5,1.699-7.301,2.199
		c-1.699,0.305-3.297,0.602-4.801,0.801c-0.898,0.199-1.797,0.305-2.699,0.5c-4.898,0.902-9.203,2.199-14.703,7.098
		c-5-0.793-9.801-1.797-14.402-2.996c-0.546-0.09-1.098-0.258-1.644-0.367l-0.133-0.062c1.691-2.187,3.586-4.481,6.074-6.77
		c0.202-0.102,0.402-0.305,0.602-0.402c0.101-0.199,0.304-0.301,0.503-0.5c0-0.098,0.098-0.098,0.098-0.098
		c0.305-0.305,0.602-0.602,0.899-0.699c7.003-5.906,13.206-7.902,18.609-9.008c1.594-0.297,3.102-0.598,4.598-0.801
		c0.902-0.195,1.902-0.297,2.801-0.496c2.402-0.402,4.801-1.004,7.102-2.102c2.098-1,4.203-2.301,6.5-4.199
		c0.301-0.203,0.602-0.504,0.902-0.703c0.098-0.195,0.301-0.297,0.402-0.402c0.898-0.793,1.598-1.598,2.301-2.293
		c0.496-0.402,0.898-0.906,1.297-1.402c0.699-0.703,1.402-1.402,1.902-2.004c-0.102-0.199-0.102-0.398-0.102-0.496
		c1.199-2.102,2-4.106,2.703-6.102c0.5-1.602,0.898-3.203,1.297-4.902c0.102-0.703,0.301-1.402,0.5-2.102
		c0.305-1,0.504-1.898,0.902-3c0.699-2.602,1.801-5.398,3.297-8.301c0.703,1.395,1.504,2.598,2.309,3.898
		c0,0.102,0.094,0.2,0.094,0.2c2.199,3.402,4.699,6.601,7.602,9.601c-0.297,1-0.598,2.106-0.797,3.102
		c-0.301,1-0.602,2.102-0.902,3.203c-0.602,2.695-1.5,5.402-2.902,8.402c-0.699,1.496-1.598,2.898-2.598,4.398
		C190.226,284.705,189.226,286.205,187.922,287.603z M125.71,226.092c-0.202,0.301-0.5,0.602-0.902,0.898l-0.301,0.305
		c-0.497,0.496-1.098,0.996-1.602,1.394c-0.098,0.102-0.196,0.102-0.298,0.207c-0.402,0.297-0.8,0.496-1.202,0.793
		c-0.898,0.504-1.798,0.805-3,1.004c-1.098,0.301-2.301,0.496-4,0.801c-1.801,0.297-3.699,0.602-5.902,1.098
		c-2.199,0.402-4.602,1.098-7.102,2.004c-2.301,0.695-4.5,1.699-7,2.996c-3.703,1.902-7.602,4.504-11.703,8.106
		c-0.398,0.3-0.797,0.702-1.199,1.098c-0.801,0.801-1.602,1.5-2.301,2.301c-7.461,7.461-11.145,14.766-13.29,20.972
		c-0.32,0.856-0.613,1.664-0.878,2.426c-3.454-5.168-5.234-10.531-5.234-15.797c0-0.798,0-1.602,0.199-2.402
		c1.699-5.395,4.801-11.5,11.703-18c7.301-6.699,13.801-9.203,19.5-10.504c2.004-0.5,4.004-0.797,5.801-1.102
		c0.602-0.098,1.203-0.199,1.805-0.297c2.5-0.402,4.898-0.898,7.301-1.805c2.301-1,4.699-2.297,7.199-4.598
		c0.504-0.301,1-0.801,1.504-1.203c0.8-0.797,1.598-1.5,2.3-2.301c0.298-0.398,0.7-0.801,1-1.098c0.5-0.199,1.098-0.297,1.7-0.496
		c1.398-0.305,2.8-0.602,4.297-0.906c1.003-0.297,2.003-0.496,3.003-0.699c1.301-0.297,2.801-0.5,4.203-0.801
		c-0.801,2.606-1.402,5.004-1.902,7.102c-0.101,0.402-0.199,0.801-0.301,1.102c-0.5,2.098-0.8,3.5-1.398,4.703
		C127.207,224.291,126.71,225.092,125.71,226.092z M183.023,214.99c-0.106,0.5-0.199,0.898-0.301,1.402
		c-0.199,1.699-0.398,3.297-0.5,4.898c-0.098,1.402-0.098,2.699-0.098,4c0,1.5,0,2.902,0.199,4.398
		c0.098,1.102,0.199,2.301,0.398,3.406c-1.199,1.297-2.199,2.5-3,3.801c-0.805,0.898-1.5,1.797-2.102,2.699
		c-1.699,2.598-3,5-4.102,7.301c-0.203,0.5-0.398,0.898-0.602,1.301c-0.898,2.202-1.598,4.199-2.199,6.098
		c-0.098,0.402-0.199,0.801-0.301,1.304c-0.598,1.798-0.996,3.402-1.301,4.899c-0.199,0.699-0.398,1.402-0.496,2.003
		c-0.106,0.497-0.305,0.898-0.402,1.297v0.106c-0.602,2.098-1.199,3.297-2.598,4.794l-0.602,0.702
		c-0.301,0.203-0.602,0.5-0.902,0.805c-0.402,0.398-0.801,0.695-1.098,0.996c-1.004,0.801-1.902,1.402-2.801,1.801
		c-1.504,0.602-3.203,0.902-6.106,1.402c-0.898,0.098-1.699,0.297-2.699,0.398c-3.398,0.602-7.398,1.398-11.902,3.199
		c-5.202,2.004-11.003,5.203-17.105,10.606c-0.497,0.301-0.898,0.699-1.298,1.098c-0.8,0.801-1.5,1.402-2.202,2.203
		c-3.801,3.703-6.5,7.398-8.602,10.898c-2.5-0.797-5-1.797-7.199-2.699c-1.402-0.602-2.703-1.098-3.902-1.699
		c1.598-5.203,4.199-11.102,10.301-17.207c0.199-0.297,0.504-0.594,0.801-0.898c0.402-0.398,0.699-0.699,1.098-1.098
		c0.504-0.402,0.906-0.801,1.305-1.203c3.098-2.699,6.102-4.602,8.898-6c3.801-1.902,7.203-2.902,10.507-3.602
		c1.598-0.297,3.102-0.496,4.497-0.695c4.003-0.706,7.3-1.203,11.003-3.102c1.805-0.906,3.602-2.102,5.504-3.805
		c0.5-0.3,0.898-0.699,1.301-1.101c0.602-0.497,1.098-1,1.5-1.402c0.297-0.298,0.496-0.594,0.801-0.794
		c0.699-0.906,1.402-1.804,2.098-2.605c0.699-1.098,1.402-2.098,1.902-3.199c0.598-1.2,1.098-2.301,1.496-3.402
		c0.402-1.199,0.805-2.5,1.102-3.699c0.102-0.696,0.301-1.305,0.504-2c0.098-0.602,0.199-1.102,0.398-1.699
		c0.297-1.5,0.699-3,1.199-4.602c0.5-1.402,1.102-2.902,1.801-4.402c0.301-0.801,0.699-1.602,1.199-2.402
		c0.699-1.394,1.602-2.902,2.703-4.398c0.496-0.699,1.098-1.301,1.602-2c0.996-1.199,2.195-2.5,3.496-3.699
		c0.102-0.203,0.199-0.305,0.402-0.402c0.199-0.199,0.398-0.496,0.703-0.703c0.398-0.297,0.801-0.699,1.195-0.996
		c0.902-0.801,3.805-3.102,4.703-3.703C183.125,214.088,183.023,214.486,183.023,214.99z M215.77,312.439
		c-3.707,0.485-7.332,0.875-11.141,1.172c-6.707,0.5-13.606,0.801-20.707,0.801h-0.699c-0.832-0.652-1.672-1.23-2.504-2.031
		c-0.054-0.066-0.109-0.114-0.164-0.191c3.293-1.695,6.782-3.89,10.371-6.879c0.398-0.203,0.695-0.5,1.098-0.801
		c4,2.699,7.606,3.402,11.805,4.199c3.191,0.622,6.832,1.531,10.738,3.164C214.969,312.065,215.363,312.225,215.77,312.439z
		 M250.539,170.279l0.102-0.098c4-1.004,7.898-1.504,11.703-1.504c0.199,0,0.297,0,0.594,0.102c0.207-0.102,0.402-0.102,0.504-0.102
		c0.199,0,0.297,0,0.5,0.102c3,0.102,5.902,0.496,8.602,1.297c1.5,0.402,2.898,0.906,4.301,1.5c3.003,1.402,5.801,3.207,8.301,5.602
		c3.398,3.207,5.902,7.207,7.503,11.606c0.199,0.602,0.504,1.203,0.598,1.898c0.102,0.098,0.102,0.203,0.102,0.305
		c1.602,5.5,2,11.598,1,17.906c-0.5,3.398-1.301,6.797-2.5,10.195c-1.003,3.102-2.398,6.203-4,9.203
		c-2.301,4.5-5.202,8.902-8.702,13.004c-1.102,1.301-2.102,2.5-3.305,3.801c-0.695,0.602-1.297,1.304-1.996,2
		c-2.203,2.102-4.301,4-6.5,5.605c-3.504,2.699-7.102,4.801-10.602,6.301c-2.606,1.199-5.203,2-7.805,2.699
		c-2.398,0.602-4.898,0.898-7.402,1c0,0,0,0-0.102,0h-1.394c-1.606,0-3.305-0.102-4.906-0.398
		c-4.598-0.602-8.902-2.004-12.902-4.305c-0.199-0.098-0.398-0.199-0.5-0.297c-1.301-0.703-2.402-1.503-3.598-2.402
		c-0.902-0.601-1.902-1.398-2.805-2.301c-0.398-0.199-0.801-0.601-1.199-0.898c-1.5-1.402-2.801-2.902-4-4.503
		c-2.801-3.5-4.898-7.398-6.203-11.402c-0.199-0.5-0.297-0.996-0.5-1.398c-0.5-2.004-0.898-4.004-1.098-5.898
		c-0.102-0.703-0.199-1.402-0.199-2.004c-0.102-1.699,0.199-6.203,0.199-6.602c0.098-0.602,0.199-1.301,0.297-2.004
		c0.203-1.301,0.504-2.598,0.801-3.801c0.203-0.695,0.402-1.5,0.699-2.195c0.305-1.106,0.703-2.203,1.106-3.305
		c0.297-0.496,0.496-1,0.699-1.496c0.098-0.203,0.199-0.402,0.297-0.602c0.102-0.305,0.301-0.602,0.398-0.898
		c0.106-0.207,0.203-0.504,0.305-0.703c1.394-2.703,3-5.301,4.898-8c0.301-0.402,0.703-0.898,1.098-1.402
		c0.305-0.5,0.703-1,1.106-1.5c0.098,0,0.098-0.102,0.199-0.199c1.195-1.301,2.398-2.699,3.602-4.102h0.098
		c0.398-0.5,0.801-0.902,1.199-1.301l0.801-0.699c0.5-0.598,1.004-1.102,1.602-1.602h0.098c0.602-0.703,1.301-1.199,2.004-1.801
		c2.098-1.902,4.297-3.602,6.602-5.102c1.797-1.301,3.602-2.297,5.402-3.301c2.199-1.297,4.402-2.398,6.703-3.301
		C245.039,171.775,247.738,170.877,250.539,170.279z" style="fill: rgb(255, 255, 255);"></path>
	<path class="st0" d="M231.683,197.134c-0.699,0.45-1.476,0.734-2.152,1.25c-0.398,0.199-0.801,0.504-1.098,0.801
		c-0.898,0.801-1.699,1.5-2.5,2.301c-0.602,0.699-1.102,1.402-1.699,2.102c-1.203,1.5-2.203,2.996-3.004,4.598
		c-0.996,1.805-1.699,3.602-2.199,5.402c-0.199,0.602-0.301,1.102-0.398,1.699c-0.106,0.402-0.203,0.898-0.305,1.5
		c0,0.106-0.098,0.305,0,0.402c-0.297,1.398-0.398,2.801-0.398,4.203c0,1.301,0.102,2.598,0.398,3.898
		c0.102,0.898,0.305,1.801,0.504,2.602c0.098,0.301,0.199,0.602,0.199,0.898c0.402,1.203,0.898,2.398,1.5,3.602
		c0.602,1.297,1.301,2.5,2.203,3.703c0.898,1.297,1.898,2.5,3.098,3.598c0.301,0.304,0.598,0.602,1,0.902
		c0.398,0.402,0.902,0.801,1.305,1.102h0.098c1.297,1,2.699,1.8,4.102,2.5c2.199,1.098,4.602,1.699,7,2.101
		c2.801,0.399,5.801,0.399,8.598-0.105c3.305-0.496,6.508-1.598,9.504-3.398c2.402-1.398,4.602-3.102,6.606-5.203
		c0.199-0.297,0.496-0.496,0.602-0.801c4.297-4.898,6.699-10.699,7.195-16.5c0.305-3.801-0.094-7.602-1.398-11.102v-0.102
		c-1.102-3.098-2.801-6.102-5.301-8.602c-0.297-0.402-0.699-0.801-1-1.102c-2.301-2.203-4.801-3.797-7.602-5
		c-0.102-0.102-0.199-0.102-0.398-0.102c-1.098-0.5-2.301-0.898-3.504-1.102c-1.098-0.297-2.203-0.496-3.301-0.598h-0.801
		c-0.098,0-0.098,0-0.098-0.098c-1.199,0-2.402,0-3.598,0.098c-1.203,0-2.301,0.199-3.504,0.398c-1.699,0.301-3.301,0.801-5,1.5
		h-0.102c-0.754,0.313-1.387,0.851-2.102,1.222C233.305,196.134,232.484,196.615,231.683,197.134z M253.48,208.592
		c-1.07-0.102-2.027-0.371-3.14-0.406h-4.203c-1.898,0.098-3.703,0.305-5.402,0.5c-0.398,0.102-0.695,0.207-0.898,0.207
		c-0.598,0.094-1.102,0.195-1.602,0.297c-0.598,0.098-1.098,0.199-1.602,0.398c-0.801,0.203-1.5,0.297-2.098,0.602
		c-0.578,0.179-1.098,0.39-1.641,0.574c-0.645,0.183-1.278,0.394-1.981,0.496c0.294-0.543,0.653-1.02,1.02-1.574h0.098
		c0.305-0.496,0.707-0.898,1.106-1.402c0.898-0.793,1.797-1.699,2.894-2.398c1.805-1.297,3.805-2.297,5.805-2.797
		c0.398-0.199,0.703-0.199,1.098-0.301c0.703-0.203,1.402-0.301,2.203-0.301c0.398-0.102,0.898-0.102,1.297-0.102h0.203
		c1,0,2,0.102,3.004,0.305c1.098,0.199,2.195,0.496,3.297,0.996c0.301,0.102,0.703,0.301,1,0.504
		c1.199,0.598,2.301,1.398,3.301,2.394c0.77,0.683,1.422,1.496,2.042,2.382c0.07,0.141,0.164,0.254,0.227,0.402
		c-0.895-0.21-1.926-0.21-2.856-0.367C255.617,208.83,254.562,208.694,253.48,208.592z" style="fill: rgb(255, 255, 255);"></path>
	<path class="st0" d="M494.386,110.041L494,109.58v0.004l-0.106-0.122l-134.43,118.43L325.453,257.9l-15.902,14.004l-3.102,2.699
		l-13.402,11.902l-22.503,19.703l-7.102,6.305c-0.297,0.297-0.801,0.699-1,1.195h-0.098c-3.004,3.406-3.102,8.809,0.098,12.504
		c0.336,0.386,0.804,0.566,1.187,0.89c0.316,0.274,0.641,0.52,0.988,0.746c0.836,0.547,1.692,0.942,2.645,1.207
		c0.363,0.102,0.726,0.179,1.102,0.238c0.504,0.082,0.969,0.32,1.481,0.32h0.699c2-0.199,4-0.902,5.602-2.301l30.304-25.305
		l3.004-2.504l15.902-13.301l40.906-34.007l143.801-119.914l1.817-1.508v-0.004L512,130.67L494.386,110.041z" style="fill: rgb(255, 255, 255);"></path>
</g>
</svg>
